<mxfile host="app.diagrams.net" modified="2023-04-05T05:54:04.226Z" agent="Mozilla/5.0 (Windows NT 10.0; Win64; x64) AppleWebKit/537.36 (KHTML, like Gecko) Chrome/111.0.0.0 Safari/537.36" etag="vCn8SUZrmUgDjiKsMjkv" version="21.1.0" type="device">
  <diagram name="페이지-1" id="zgUNzpv_1WJQ5rxB1u2U">
    <mxGraphModel dx="2027" dy="2306" grid="1" gridSize="10" guides="1" tooltips="1" connect="1" arrows="1" fold="1" page="1" pageScale="1" pageWidth="827" pageHeight="1169" math="0" shadow="0">
      <root>
        <mxCell id="0" />
        <mxCell id="1" parent="0" />
        <mxCell id="yHIf9WJu6i8qHb0t4-19-78" value="" style="rounded=0;whiteSpace=wrap;html=1;" vertex="1" parent="1">
          <mxGeometry x="325" y="-200" width="960" height="1170" as="geometry" />
        </mxCell>
        <mxCell id="yHIf9WJu6i8qHb0t4-19-63" value="" style="rounded=0;whiteSpace=wrap;html=1;" vertex="1" parent="1">
          <mxGeometry x="400" y="1340" width="890" height="1200" as="geometry" />
        </mxCell>
        <mxCell id="Tm5OL89H6dSyZLh9gVA5-1" value="사용자" style="shape=umlActor;verticalLabelPosition=bottom;verticalAlign=top;html=1;outlineConnect=0;" parent="1" vertex="1">
          <mxGeometry x="60" y="140" width="70" height="140" as="geometry" />
        </mxCell>
        <mxCell id="Tm5OL89H6dSyZLh9gVA5-15" value="관리자" style="shape=umlActor;verticalLabelPosition=bottom;verticalAlign=top;html=1;outlineConnect=0;" parent="1" vertex="1">
          <mxGeometry x="220" y="1769" width="70" height="140" as="geometry" />
        </mxCell>
        <mxCell id="Tm5OL89H6dSyZLh9gVA5-9" value="클래스 등록" style="ellipse;whiteSpace=wrap;html=1;" parent="1" vertex="1">
          <mxGeometry x="544" y="1470" width="120" height="80" as="geometry" />
        </mxCell>
        <mxCell id="Tm5OL89H6dSyZLh9gVA5-10" value="클래스 수정" style="ellipse;whiteSpace=wrap;html=1;" parent="1" vertex="1">
          <mxGeometry x="550" y="1649" width="120" height="80" as="geometry" />
        </mxCell>
        <mxCell id="Tm5OL89H6dSyZLh9gVA5-11" value="클래스 삭제" style="ellipse;whiteSpace=wrap;html=1;" parent="1" vertex="1">
          <mxGeometry x="544" y="1779" width="120" height="80" as="geometry" />
        </mxCell>
        <mxCell id="Tm5OL89H6dSyZLh9gVA5-12" value="클래스 조회" style="ellipse;whiteSpace=wrap;html=1;" parent="1" vertex="1">
          <mxGeometry x="544" y="1909" width="120" height="80" as="geometry" />
        </mxCell>
        <mxCell id="Tm5OL89H6dSyZLh9gVA5-13" value="클래스 상세조회" style="ellipse;whiteSpace=wrap;html=1;" parent="1" vertex="1">
          <mxGeometry x="544" y="2069" width="120" height="80" as="geometry" />
        </mxCell>
        <mxCell id="Tm5OL89H6dSyZLh9gVA5-19" value="" style="endArrow=none;html=1;rounded=0;exitX=1;exitY=0.3333333333333333;exitDx=0;exitDy=0;exitPerimeter=0;entryX=0;entryY=0.5;entryDx=0;entryDy=0;" parent="1" target="Tm5OL89H6dSyZLh9gVA5-10" edge="1" source="Tm5OL89H6dSyZLh9gVA5-15">
          <mxGeometry width="50" height="50" relative="1" as="geometry">
            <mxPoint x="-610" y="1255.666666666667" as="sourcePoint" />
            <mxPoint x="-430" y="759" as="targetPoint" />
          </mxGeometry>
        </mxCell>
        <mxCell id="Tm5OL89H6dSyZLh9gVA5-20" value="" style="endArrow=none;html=1;rounded=0;entryX=0;entryY=0.5;entryDx=0;entryDy=0;exitX=1;exitY=0.3333333333333333;exitDx=0;exitDy=0;exitPerimeter=0;" parent="1" target="Tm5OL89H6dSyZLh9gVA5-9" edge="1" source="Tm5OL89H6dSyZLh9gVA5-15">
          <mxGeometry width="50" height="50" relative="1" as="geometry">
            <mxPoint x="370" y="1499" as="sourcePoint" />
            <mxPoint x="-350" y="764" as="targetPoint" />
          </mxGeometry>
        </mxCell>
        <mxCell id="Tm5OL89H6dSyZLh9gVA5-21" value="" style="endArrow=none;html=1;rounded=0;entryX=0;entryY=0.5;entryDx=0;entryDy=0;exitX=1;exitY=0.3333333333333333;exitDx=0;exitDy=0;exitPerimeter=0;" parent="1" target="Tm5OL89H6dSyZLh9gVA5-11" edge="1" source="Tm5OL89H6dSyZLh9gVA5-15">
          <mxGeometry width="50" height="50" relative="1" as="geometry">
            <mxPoint x="290" y="1224" as="sourcePoint" />
            <mxPoint x="-350" y="664" as="targetPoint" />
          </mxGeometry>
        </mxCell>
        <mxCell id="Tm5OL89H6dSyZLh9gVA5-22" value="" style="endArrow=none;html=1;rounded=0;entryX=0;entryY=0.5;entryDx=0;entryDy=0;exitX=1;exitY=0.3333333333333333;exitDx=0;exitDy=0;exitPerimeter=0;" parent="1" target="Tm5OL89H6dSyZLh9gVA5-12" edge="1" source="Tm5OL89H6dSyZLh9gVA5-15">
          <mxGeometry width="50" height="50" relative="1" as="geometry">
            <mxPoint x="-610" y="1255.666666666667" as="sourcePoint" />
            <mxPoint x="-350" y="864" as="targetPoint" />
          </mxGeometry>
        </mxCell>
        <mxCell id="Tm5OL89H6dSyZLh9gVA5-23" value="" style="endArrow=none;html=1;rounded=0;entryX=0;entryY=0.5;entryDx=0;entryDy=0;exitX=1;exitY=0.3333333333333333;exitDx=0;exitDy=0;exitPerimeter=0;" parent="1" target="Tm5OL89H6dSyZLh9gVA5-13" edge="1" source="Tm5OL89H6dSyZLh9gVA5-15">
          <mxGeometry width="50" height="50" relative="1" as="geometry">
            <mxPoint x="-610" y="1255.666666666667" as="sourcePoint" />
            <mxPoint x="-350" y="964" as="targetPoint" />
          </mxGeometry>
        </mxCell>
        <mxCell id="Tm5OL89H6dSyZLh9gVA5-25" value="클래스 리스트 조회" style="ellipse;whiteSpace=wrap;html=1;" parent="1" vertex="1">
          <mxGeometry x="500" y="-130" width="120" height="80" as="geometry" />
        </mxCell>
        <mxCell id="Tm5OL89H6dSyZLh9gVA5-26" value="클래스 상세조회" style="ellipse;whiteSpace=wrap;html=1;" parent="1" vertex="1">
          <mxGeometry x="480" y="205" width="120" height="80" as="geometry" />
        </mxCell>
        <mxCell id="Tm5OL89H6dSyZLh9gVA5-28" value="클래스 정렬" style="ellipse;whiteSpace=wrap;html=1;" parent="1" vertex="1">
          <mxGeometry x="500" y="-20" width="120" height="80" as="geometry" />
        </mxCell>
        <mxCell id="Tm5OL89H6dSyZLh9gVA5-30" value="카테고리 기준" style="ellipse;whiteSpace=wrap;html=1;" parent="1" vertex="1">
          <mxGeometry x="720" y="-20" width="120" height="80" as="geometry" />
        </mxCell>
        <mxCell id="Tm5OL89H6dSyZLh9gVA5-33" value="클래스 예약" style="ellipse;whiteSpace=wrap;html=1;" parent="1" vertex="1">
          <mxGeometry x="750" y="90" width="120" height="80" as="geometry" />
        </mxCell>
        <mxCell id="Tm5OL89H6dSyZLh9gVA5-36" value="" style="endArrow=none;html=1;rounded=0;exitX=1;exitY=0.3333333333333333;exitDx=0;exitDy=0;exitPerimeter=0;entryX=0;entryY=0.5;entryDx=0;entryDy=0;" parent="1" source="Tm5OL89H6dSyZLh9gVA5-1" target="Tm5OL89H6dSyZLh9gVA5-28" edge="1">
          <mxGeometry width="50" height="50" relative="1" as="geometry">
            <mxPoint x="230" y="127" as="sourcePoint" />
            <mxPoint x="490" y="-60" as="targetPoint" />
          </mxGeometry>
        </mxCell>
        <mxCell id="Tm5OL89H6dSyZLh9gVA5-37" value="" style="endArrow=none;html=1;rounded=0;exitX=1;exitY=0.3333333333333333;exitDx=0;exitDy=0;exitPerimeter=0;entryX=0;entryY=0.5;entryDx=0;entryDy=0;" parent="1" source="Tm5OL89H6dSyZLh9gVA5-1" target="Tm5OL89H6dSyZLh9gVA5-25" edge="1">
          <mxGeometry width="50" height="50" relative="1" as="geometry">
            <mxPoint x="230" y="127" as="sourcePoint" />
            <mxPoint x="490" y="30" as="targetPoint" />
          </mxGeometry>
        </mxCell>
        <mxCell id="Tm5OL89H6dSyZLh9gVA5-38" value="" style="endArrow=none;html=1;rounded=0;exitX=1;exitY=0.3333333333333333;exitDx=0;exitDy=0;exitPerimeter=0;entryX=0;entryY=0.5;entryDx=0;entryDy=0;" parent="1" source="Tm5OL89H6dSyZLh9gVA5-1" target="Tm5OL89H6dSyZLh9gVA5-26" edge="1">
          <mxGeometry width="50" height="50" relative="1" as="geometry">
            <mxPoint x="230" y="127" as="sourcePoint" />
            <mxPoint x="490" y="130" as="targetPoint" />
          </mxGeometry>
        </mxCell>
        <mxCell id="Tm5OL89H6dSyZLh9gVA5-40" value="URL 복사" style="ellipse;whiteSpace=wrap;html=1;" parent="1" vertex="1">
          <mxGeometry x="750" y="205" width="120" height="80" as="geometry" />
        </mxCell>
        <mxCell id="Tm5OL89H6dSyZLh9gVA5-41" value="관심 클래스 등록" style="ellipse;whiteSpace=wrap;html=1;" parent="1" vertex="1">
          <mxGeometry x="750" y="320" width="120" height="80" as="geometry" />
        </mxCell>
        <mxCell id="Tm5OL89H6dSyZLh9gVA5-48" value="예약가능 회차선택" style="ellipse;whiteSpace=wrap;html=1;" parent="1" vertex="1">
          <mxGeometry x="1000" y="90" width="120" height="80" as="geometry" />
        </mxCell>
        <mxCell id="Tm5OL89H6dSyZLh9gVA5-49" value="로그인" style="ellipse;whiteSpace=wrap;html=1;" parent="1" vertex="1">
          <mxGeometry x="1000" y="180" width="120" height="80" as="geometry" />
        </mxCell>
        <mxCell id="Tm5OL89H6dSyZLh9gVA5-50" value="수강료 결제" style="ellipse;whiteSpace=wrap;html=1;" parent="1" vertex="1">
          <mxGeometry x="1000" y="-140" width="120" height="80" as="geometry" />
        </mxCell>
        <mxCell id="Tm5OL89H6dSyZLh9gVA5-59" value="Extends" style="endArrow=block;endSize=16;endFill=0;html=1;rounded=0;entryX=1;entryY=0.5;entryDx=0;entryDy=0;exitX=0;exitY=0.5;exitDx=0;exitDy=0;edgeStyle=elbowEdgeStyle;" parent="1" source="Tm5OL89H6dSyZLh9gVA5-30" target="Tm5OL89H6dSyZLh9gVA5-28" edge="1">
          <mxGeometry x="-0.1667" width="160" relative="1" as="geometry">
            <mxPoint x="970" y="-100" as="sourcePoint" />
            <mxPoint x="1130" y="-100" as="targetPoint" />
            <mxPoint as="offset" />
          </mxGeometry>
        </mxCell>
        <mxCell id="Tm5OL89H6dSyZLh9gVA5-60" value="" style="html=1;verticalAlign=bottom;endArrow=open;dashed=1;endSize=8;elbow=vertical;rounded=0;exitX=0;exitY=0.5;exitDx=0;exitDy=0;" parent="1" source="Tm5OL89H6dSyZLh9gVA5-40" edge="1">
          <mxGeometry x="1" y="176" relative="1" as="geometry">
            <mxPoint x="690" y="250" as="sourcePoint" />
            <mxPoint x="600" y="245" as="targetPoint" />
            <mxPoint x="-31" y="-9" as="offset" />
            <Array as="points" />
          </mxGeometry>
        </mxCell>
        <mxCell id="Tm5OL89H6dSyZLh9gVA5-71" style="edgeStyle=orthogonalEdgeStyle;rounded=0;orthogonalLoop=1;jettySize=auto;html=1;exitX=0.5;exitY=1;exitDx=0;exitDy=0;" parent="1" source="Tm5OL89H6dSyZLh9gVA5-41" target="Tm5OL89H6dSyZLh9gVA5-41" edge="1">
          <mxGeometry relative="1" as="geometry" />
        </mxCell>
        <mxCell id="Tm5OL89H6dSyZLh9gVA5-73" value="클래스 후기조회" style="ellipse;whiteSpace=wrap;html=1;" parent="1" vertex="1">
          <mxGeometry x="750" y="430" width="120" height="80" as="geometry" />
        </mxCell>
        <mxCell id="Tm5OL89H6dSyZLh9gVA5-75" value="클래스 후기 작성" style="ellipse;whiteSpace=wrap;html=1;" parent="1" vertex="1">
          <mxGeometry x="480" y="650" width="120" height="80" as="geometry" />
        </mxCell>
        <mxCell id="Tm5OL89H6dSyZLh9gVA5-77" value="" style="endArrow=none;html=1;rounded=0;entryX=0;entryY=0.5;entryDx=0;entryDy=0;exitX=1;exitY=0.3333333333333333;exitDx=0;exitDy=0;exitPerimeter=0;" parent="1" target="Tm5OL89H6dSyZLh9gVA5-75" edge="1" source="Tm5OL89H6dSyZLh9gVA5-1">
          <mxGeometry width="50" height="50" relative="1" as="geometry">
            <mxPoint x="220" y="120" as="sourcePoint" />
            <mxPoint x="490" y="290" as="targetPoint" />
          </mxGeometry>
        </mxCell>
        <mxCell id="yHIf9WJu6i8qHb0t4-19-3" value="예약인원 선택" style="ellipse;whiteSpace=wrap;html=1;" vertex="1" parent="1">
          <mxGeometry x="1000" width="120" height="80" as="geometry" />
        </mxCell>
        <mxCell id="yHIf9WJu6i8qHb0t4-19-7" value="센터 위치 조회" style="ellipse;whiteSpace=wrap;html=1;" vertex="1" parent="1">
          <mxGeometry x="750" y="530" width="120" height="80" as="geometry" />
        </mxCell>
        <mxCell id="yHIf9WJu6i8qHb0t4-19-10" value="" style="endArrow=none;dashed=1;html=1;rounded=0;entryX=0;entryY=0.5;entryDx=0;entryDy=0;" edge="1" parent="1" target="Tm5OL89H6dSyZLh9gVA5-41">
          <mxGeometry width="50" height="50" relative="1" as="geometry">
            <mxPoint x="670" y="360" as="sourcePoint" />
            <mxPoint x="720" y="310" as="targetPoint" />
          </mxGeometry>
        </mxCell>
        <mxCell id="yHIf9WJu6i8qHb0t4-19-11" value="" style="endArrow=none;dashed=1;html=1;rounded=0;" edge="1" parent="1">
          <mxGeometry width="50" height="50" relative="1" as="geometry">
            <mxPoint x="670" y="570" as="sourcePoint" />
            <mxPoint x="670" y="130" as="targetPoint" />
          </mxGeometry>
        </mxCell>
        <mxCell id="yHIf9WJu6i8qHb0t4-19-22" value="include" style="edgeLabel;html=1;align=center;verticalAlign=middle;resizable=0;points=[];" vertex="1" connectable="0" parent="yHIf9WJu6i8qHb0t4-19-11">
          <mxGeometry x="0.2966" y="2" relative="1" as="geometry">
            <mxPoint y="25" as="offset" />
          </mxGeometry>
        </mxCell>
        <mxCell id="yHIf9WJu6i8qHb0t4-19-12" value="" style="endArrow=none;dashed=1;html=1;rounded=0;entryX=0;entryY=0.5;entryDx=0;entryDy=0;" edge="1" parent="1" target="Tm5OL89H6dSyZLh9gVA5-33">
          <mxGeometry width="50" height="50" relative="1" as="geometry">
            <mxPoint x="670" y="130" as="sourcePoint" />
            <mxPoint x="720" y="130" as="targetPoint" />
          </mxGeometry>
        </mxCell>
        <mxCell id="yHIf9WJu6i8qHb0t4-19-14" value="" style="endArrow=none;dashed=1;html=1;rounded=0;entryX=0;entryY=0.5;entryDx=0;entryDy=0;" edge="1" parent="1">
          <mxGeometry width="50" height="50" relative="1" as="geometry">
            <mxPoint x="670" y="470" as="sourcePoint" />
            <mxPoint x="750" y="470" as="targetPoint" />
          </mxGeometry>
        </mxCell>
        <mxCell id="yHIf9WJu6i8qHb0t4-19-15" value="" style="endArrow=none;dashed=1;html=1;rounded=0;entryX=0;entryY=0.5;entryDx=0;entryDy=0;" edge="1" parent="1" target="yHIf9WJu6i8qHb0t4-19-7">
          <mxGeometry width="50" height="50" relative="1" as="geometry">
            <mxPoint x="670" y="570" as="sourcePoint" />
            <mxPoint x="744" y="570" as="targetPoint" />
          </mxGeometry>
        </mxCell>
        <mxCell id="yHIf9WJu6i8qHb0t4-19-16" value="" style="endArrow=none;dashed=1;html=1;rounded=0;entryX=0;entryY=0.5;entryDx=0;entryDy=0;" edge="1" parent="1" target="yHIf9WJu6i8qHb0t4-19-3">
          <mxGeometry width="50" height="50" relative="1" as="geometry">
            <mxPoint x="940" y="130" as="sourcePoint" />
            <mxPoint x="920" y="-155" as="targetPoint" />
            <Array as="points">
              <mxPoint x="940" y="40" />
            </Array>
          </mxGeometry>
        </mxCell>
        <mxCell id="yHIf9WJu6i8qHb0t4-19-17" value="" style="endArrow=none;dashed=1;html=1;rounded=0;" edge="1" parent="1" target="Tm5OL89H6dSyZLh9gVA5-49">
          <mxGeometry width="50" height="50" relative="1" as="geometry">
            <mxPoint x="940" y="130" as="sourcePoint" />
            <mxPoint x="970" y="50" as="targetPoint" />
            <Array as="points">
              <mxPoint x="940" y="220" />
            </Array>
          </mxGeometry>
        </mxCell>
        <mxCell id="yHIf9WJu6i8qHb0t4-19-23" value="" style="html=1;verticalAlign=bottom;endArrow=open;dashed=1;endSize=8;elbow=vertical;rounded=0;exitX=0;exitY=0.5;exitDx=0;exitDy=0;" edge="1" parent="1" source="Tm5OL89H6dSyZLh9gVA5-48">
          <mxGeometry x="1" y="176" relative="1" as="geometry">
            <mxPoint x="990" y="130" as="sourcePoint" />
            <mxPoint x="870" y="130" as="targetPoint" />
            <mxPoint x="-31" y="-9" as="offset" />
            <Array as="points" />
          </mxGeometry>
        </mxCell>
        <mxCell id="yHIf9WJu6i8qHb0t4-19-26" value="include" style="edgeLabel;html=1;align=center;verticalAlign=middle;resizable=0;points=[];" vertex="1" connectable="0" parent="yHIf9WJu6i8qHb0t4-19-23">
          <mxGeometry x="-0.6885" y="-2" relative="1" as="geometry">
            <mxPoint x="-40" y="2" as="offset" />
          </mxGeometry>
        </mxCell>
        <mxCell id="yHIf9WJu6i8qHb0t4-19-28" value="" style="html=1;verticalAlign=bottom;endArrow=open;dashed=1;endSize=8;elbow=vertical;rounded=0;exitX=1;exitY=0.5;exitDx=0;exitDy=0;entryX=0;entryY=0.5;entryDx=0;entryDy=0;" edge="1" parent="1" source="Tm5OL89H6dSyZLh9gVA5-33" target="Tm5OL89H6dSyZLh9gVA5-50">
          <mxGeometry x="1" y="176" relative="1" as="geometry">
            <mxPoint x="760" y="255" as="sourcePoint" />
            <mxPoint x="610" y="255" as="targetPoint" />
            <mxPoint x="-31" y="-9" as="offset" />
            <Array as="points">
              <mxPoint x="870" y="-100" />
            </Array>
          </mxGeometry>
        </mxCell>
        <mxCell id="yHIf9WJu6i8qHb0t4-19-29" value="include" style="edgeLabel;html=1;align=center;verticalAlign=middle;resizable=0;points=[];" vertex="1" connectable="0" parent="yHIf9WJu6i8qHb0t4-19-28">
          <mxGeometry x="0.1121" y="-2" relative="1" as="geometry">
            <mxPoint as="offset" />
          </mxGeometry>
        </mxCell>
        <mxCell id="yHIf9WJu6i8qHb0t4-19-32" value="이미지 등록" style="ellipse;whiteSpace=wrap;html=1;" vertex="1" parent="1">
          <mxGeometry x="920" y="1400" width="120" height="80" as="geometry" />
        </mxCell>
        <mxCell id="yHIf9WJu6i8qHb0t4-19-33" value="" style="endArrow=none;dashed=1;html=1;rounded=0;entryX=0;entryY=0.5;entryDx=0;entryDy=0;" edge="1" parent="1" target="yHIf9WJu6i8qHb0t4-19-32">
          <mxGeometry width="50" height="50" relative="1" as="geometry">
            <mxPoint x="750" y="1510" as="sourcePoint" />
            <mxPoint x="807" y="1164" as="targetPoint" />
            <Array as="points">
              <mxPoint x="750" y="1440" />
            </Array>
          </mxGeometry>
        </mxCell>
        <mxCell id="yHIf9WJu6i8qHb0t4-19-41" value="회차 등록" style="ellipse;whiteSpace=wrap;html=1;" vertex="1" parent="1">
          <mxGeometry x="922" y="1500" width="120" height="80" as="geometry" />
        </mxCell>
        <mxCell id="yHIf9WJu6i8qHb0t4-19-42" value="" style="endArrow=none;dashed=1;html=1;rounded=0;entryX=0;entryY=0.5;entryDx=0;entryDy=0;" edge="1" parent="1" target="yHIf9WJu6i8qHb0t4-19-41">
          <mxGeometry width="50" height="50" relative="1" as="geometry">
            <mxPoint x="840" y="1600" as="sourcePoint" />
            <mxPoint x="820" y="1434" as="targetPoint" />
            <Array as="points">
              <mxPoint x="840" y="1540" />
            </Array>
          </mxGeometry>
        </mxCell>
        <mxCell id="yHIf9WJu6i8qHb0t4-19-44" value="회차 삭제" style="ellipse;whiteSpace=wrap;html=1;" vertex="1" parent="1">
          <mxGeometry x="922" y="1589" width="120" height="80" as="geometry" />
        </mxCell>
        <mxCell id="yHIf9WJu6i8qHb0t4-19-47" value="" style="html=1;verticalAlign=bottom;endArrow=open;dashed=1;endSize=8;elbow=vertical;rounded=0;exitX=0;exitY=0.5;exitDx=0;exitDy=0;entryX=1;entryY=0.5;entryDx=0;entryDy=0;" edge="1" parent="1" source="yHIf9WJu6i8qHb0t4-19-44" target="Tm5OL89H6dSyZLh9gVA5-9">
          <mxGeometry x="1" y="176" relative="1" as="geometry">
            <mxPoint x="899.9999999999995" y="1642.0000000000005" as="sourcePoint" />
            <mxPoint x="660" y="1439" as="targetPoint" />
            <mxPoint x="-31" y="-9" as="offset" />
            <Array as="points">
              <mxPoint x="840" y="1630" />
              <mxPoint x="840" y="1582" />
              <mxPoint x="750" y="1582" />
              <mxPoint x="750" y="1510" />
            </Array>
          </mxGeometry>
        </mxCell>
        <mxCell id="yHIf9WJu6i8qHb0t4-19-48" value="include" style="edgeLabel;html=1;align=center;verticalAlign=middle;resizable=0;points=[];rotation=0;" vertex="1" connectable="0" parent="yHIf9WJu6i8qHb0t4-19-47">
          <mxGeometry x="-0.6885" y="-2" relative="1" as="geometry">
            <mxPoint x="-113" y="-118" as="offset" />
          </mxGeometry>
        </mxCell>
        <mxCell id="yHIf9WJu6i8qHb0t4-19-49" value="" style="html=1;verticalAlign=bottom;endArrow=open;dashed=1;endSize=8;elbow=vertical;rounded=0;exitX=0;exitY=0.5;exitDx=0;exitDy=0;" edge="1" parent="1" source="yHIf9WJu6i8qHb0t4-19-52">
          <mxGeometry x="1" y="176" relative="1" as="geometry">
            <mxPoint x="820" y="2059" as="sourcePoint" />
            <mxPoint x="664" y="2109" as="targetPoint" />
            <mxPoint x="-31" y="-9" as="offset" />
            <Array as="points">
              <mxPoint x="820" y="2059" />
              <mxPoint x="820" y="2109" />
            </Array>
          </mxGeometry>
        </mxCell>
        <mxCell id="yHIf9WJu6i8qHb0t4-19-50" value="include" style="edgeLabel;html=1;align=center;verticalAlign=middle;resizable=0;points=[];" vertex="1" connectable="0" parent="yHIf9WJu6i8qHb0t4-19-49">
          <mxGeometry x="-0.6885" y="-2" relative="1" as="geometry">
            <mxPoint x="-93" y="52" as="offset" />
          </mxGeometry>
        </mxCell>
        <mxCell id="yHIf9WJu6i8qHb0t4-19-51" value="" style="endArrow=none;dashed=1;html=1;rounded=0;entryX=0;entryY=0.5;entryDx=0;entryDy=0;" edge="1" parent="1" target="yHIf9WJu6i8qHb0t4-19-53">
          <mxGeometry width="50" height="50" relative="1" as="geometry">
            <mxPoint x="820" y="2109" as="sourcePoint" />
            <mxPoint x="897.5" y="2149.5" as="targetPoint" />
            <Array as="points">
              <mxPoint x="820" y="2159" />
            </Array>
          </mxGeometry>
        </mxCell>
        <mxCell id="yHIf9WJu6i8qHb0t4-19-52" value="이미지 조회" style="ellipse;whiteSpace=wrap;html=1;" vertex="1" parent="1">
          <mxGeometry x="920" y="2019.5" width="120" height="80" as="geometry" />
        </mxCell>
        <mxCell id="yHIf9WJu6i8qHb0t4-19-53" value="회차 조회" style="ellipse;whiteSpace=wrap;html=1;" vertex="1" parent="1">
          <mxGeometry x="920" y="2119" width="120" height="80" as="geometry" />
        </mxCell>
        <mxCell id="yHIf9WJu6i8qHb0t4-19-54" value="" style="html=1;verticalAlign=bottom;endArrow=open;dashed=1;endSize=8;elbow=vertical;rounded=0;exitX=0;exitY=0.5;exitDx=0;exitDy=0;" edge="1" parent="1" source="yHIf9WJu6i8qHb0t4-19-56">
          <mxGeometry x="1" y="176" relative="1" as="geometry">
            <mxPoint x="800" y="1819" as="sourcePoint" />
            <mxPoint x="662" y="1819" as="targetPoint" />
            <mxPoint x="-31" y="-9" as="offset" />
            <Array as="points">
              <mxPoint x="750" y="1739" />
              <mxPoint x="750" y="1819" />
            </Array>
          </mxGeometry>
        </mxCell>
        <mxCell id="yHIf9WJu6i8qHb0t4-19-55" value="include" style="edgeLabel;html=1;align=center;verticalAlign=middle;resizable=0;points=[];" vertex="1" connectable="0" parent="yHIf9WJu6i8qHb0t4-19-54">
          <mxGeometry x="-0.6885" y="-2" relative="1" as="geometry">
            <mxPoint x="-16" y="42" as="offset" />
          </mxGeometry>
        </mxCell>
        <mxCell id="yHIf9WJu6i8qHb0t4-19-56" value="회차 삭제" style="ellipse;whiteSpace=wrap;html=1;" vertex="1" parent="1">
          <mxGeometry x="750" y="1649" width="120" height="80" as="geometry" />
        </mxCell>
        <mxCell id="yHIf9WJu6i8qHb0t4-19-57" value="이름검색" style="ellipse;whiteSpace=wrap;html=1;" vertex="1" parent="1">
          <mxGeometry x="920" y="1719" width="120" height="80" as="geometry" />
        </mxCell>
        <mxCell id="yHIf9WJu6i8qHb0t4-19-59" value="지역검색" style="ellipse;whiteSpace=wrap;html=1;" vertex="1" parent="1">
          <mxGeometry x="920" y="1819" width="120" height="80" as="geometry" />
        </mxCell>
        <mxCell id="yHIf9WJu6i8qHb0t4-19-60" value="카테고리 검색" style="ellipse;whiteSpace=wrap;html=1;" vertex="1" parent="1">
          <mxGeometry x="920" y="1909" width="120" height="80" as="geometry" />
        </mxCell>
        <mxCell id="yHIf9WJu6i8qHb0t4-19-61" value="" style="endArrow=none;html=1;rounded=0;entryX=0;entryY=0.5;entryDx=0;entryDy=0;" edge="1" parent="1" target="yHIf9WJu6i8qHb0t4-19-59">
          <mxGeometry width="50" height="50" relative="1" as="geometry">
            <mxPoint x="797" y="1859" as="sourcePoint" />
            <mxPoint x="930" y="1859" as="targetPoint" />
          </mxGeometry>
        </mxCell>
        <mxCell id="yHIf9WJu6i8qHb0t4-19-62" value="" style="endArrow=none;html=1;rounded=0;entryX=0;entryY=0.5;entryDx=0;entryDy=0;" edge="1" parent="1" target="yHIf9WJu6i8qHb0t4-19-60">
          <mxGeometry width="50" height="50" relative="1" as="geometry">
            <mxPoint x="793" y="1949" as="sourcePoint" />
            <mxPoint x="900" y="1970" as="targetPoint" />
          </mxGeometry>
        </mxCell>
        <mxCell id="yHIf9WJu6i8qHb0t4-19-58" value="Extends" style="endArrow=block;endSize=16;endFill=0;html=1;rounded=0;entryX=1;entryY=0.5;entryDx=0;entryDy=0;exitX=0;exitY=0.5;exitDx=0;exitDy=0;edgeStyle=elbowEdgeStyle;" edge="1" parent="1" source="yHIf9WJu6i8qHb0t4-19-57">
          <mxGeometry x="0.0208" width="160" relative="1" as="geometry">
            <mxPoint x="1024" y="1814" as="sourcePoint" />
            <mxPoint x="664" y="1949" as="targetPoint" />
            <mxPoint as="offset" />
          </mxGeometry>
        </mxCell>
        <mxCell id="yHIf9WJu6i8qHb0t4-19-64" value="이미지 등록" style="ellipse;whiteSpace=wrap;html=1;" vertex="1" parent="1">
          <mxGeometry x="920" y="2220" width="120" height="80" as="geometry" />
        </mxCell>
        <mxCell id="yHIf9WJu6i8qHb0t4-19-65" value="" style="endArrow=none;dashed=1;html=1;rounded=0;entryX=0;entryY=0.5;entryDx=0;entryDy=0;" edge="1" parent="1" target="yHIf9WJu6i8qHb0t4-19-64">
          <mxGeometry width="50" height="50" relative="1" as="geometry">
            <mxPoint x="820" y="2350" as="sourcePoint" />
            <mxPoint x="828" y="2215" as="targetPoint" />
            <Array as="points">
              <mxPoint x="820" y="2260" />
            </Array>
          </mxGeometry>
        </mxCell>
        <mxCell id="yHIf9WJu6i8qHb0t4-19-66" value="" style="html=1;verticalAlign=bottom;endArrow=open;dashed=1;endSize=8;elbow=vertical;rounded=0;exitX=0;exitY=0.5;exitDx=0;exitDy=0;entryX=1;entryY=0.5;entryDx=0;entryDy=0;" edge="1" parent="1" source="yHIf9WJu6i8qHb0t4-19-68" target="Tm5OL89H6dSyZLh9gVA5-13">
          <mxGeometry x="1" y="176" relative="1" as="geometry">
            <mxPoint x="1081" y="2470" as="sourcePoint" />
            <mxPoint x="670" y="2110" as="targetPoint" />
            <mxPoint x="-31" y="-9" as="offset" />
            <Array as="points">
              <mxPoint x="664" y="2350" />
              <mxPoint x="664" y="2220" />
            </Array>
          </mxGeometry>
        </mxCell>
        <mxCell id="yHIf9WJu6i8qHb0t4-19-67" value="include" style="edgeLabel;html=1;align=center;verticalAlign=middle;resizable=0;points=[];" vertex="1" connectable="0" parent="yHIf9WJu6i8qHb0t4-19-66">
          <mxGeometry x="-0.6885" y="-2" relative="1" as="geometry">
            <mxPoint x="-54" y="2" as="offset" />
          </mxGeometry>
        </mxCell>
        <mxCell id="yHIf9WJu6i8qHb0t4-19-68" value="이미지 수정" style="ellipse;whiteSpace=wrap;html=1;" vertex="1" parent="1">
          <mxGeometry x="922" y="2310" width="120" height="80" as="geometry" />
        </mxCell>
        <mxCell id="yHIf9WJu6i8qHb0t4-19-69" value="이미지 삭제" style="ellipse;whiteSpace=wrap;html=1;" vertex="1" parent="1">
          <mxGeometry x="922" y="2400" width="120" height="80" as="geometry" />
        </mxCell>
        <mxCell id="yHIf9WJu6i8qHb0t4-19-70" value="" style="endArrow=none;dashed=1;html=1;rounded=0;entryX=0;entryY=0.5;entryDx=0;entryDy=0;" edge="1" parent="1" target="yHIf9WJu6i8qHb0t4-19-69">
          <mxGeometry width="50" height="50" relative="1" as="geometry">
            <mxPoint x="820" y="2350" as="sourcePoint" />
            <mxPoint x="908" y="2440" as="targetPoint" />
            <Array as="points">
              <mxPoint x="820" y="2440" />
            </Array>
          </mxGeometry>
        </mxCell>
        <mxCell id="yHIf9WJu6i8qHb0t4-19-71" value="후기 수정" style="ellipse;whiteSpace=wrap;html=1;" vertex="1" parent="1">
          <mxGeometry x="750" y="650" width="120" height="80" as="geometry" />
        </mxCell>
        <mxCell id="yHIf9WJu6i8qHb0t4-19-72" value="후기 삭제" style="ellipse;whiteSpace=wrap;html=1;" vertex="1" parent="1">
          <mxGeometry x="750" y="740" width="120" height="80" as="geometry" />
        </mxCell>
        <mxCell id="yHIf9WJu6i8qHb0t4-19-73" value="" style="html=1;verticalAlign=bottom;endArrow=open;dashed=1;endSize=8;elbow=vertical;rounded=0;exitX=0;exitY=0.5;exitDx=0;exitDy=0;entryX=1;entryY=0.5;entryDx=0;entryDy=0;" edge="1" parent="1" source="yHIf9WJu6i8qHb0t4-19-71" target="Tm5OL89H6dSyZLh9gVA5-75">
          <mxGeometry x="1" y="176" relative="1" as="geometry">
            <mxPoint x="500" y="420" as="sourcePoint" />
            <mxPoint x="600" y="670" as="targetPoint" />
            <mxPoint x="-31" y="-9" as="offset" />
            <Array as="points" />
          </mxGeometry>
        </mxCell>
        <mxCell id="yHIf9WJu6i8qHb0t4-19-74" value="include" style="edgeLabel;html=1;align=center;verticalAlign=middle;resizable=0;points=[];" vertex="1" connectable="0" parent="yHIf9WJu6i8qHb0t4-19-73">
          <mxGeometry x="0.1121" y="-2" relative="1" as="geometry">
            <mxPoint x="-26" y="2" as="offset" />
          </mxGeometry>
        </mxCell>
        <mxCell id="yHIf9WJu6i8qHb0t4-19-75" value="" style="endArrow=none;dashed=1;html=1;rounded=0;entryX=0;entryY=0.5;entryDx=0;entryDy=0;" edge="1" parent="1" target="yHIf9WJu6i8qHb0t4-19-72">
          <mxGeometry width="50" height="50" relative="1" as="geometry">
            <mxPoint x="670" y="690" as="sourcePoint" />
            <mxPoint x="760" y="370" as="targetPoint" />
            <Array as="points">
              <mxPoint x="670" y="780" />
            </Array>
          </mxGeometry>
        </mxCell>
        <mxCell id="yHIf9WJu6i8qHb0t4-19-76" value="후기 검색" style="ellipse;whiteSpace=wrap;html=1;" vertex="1" parent="1">
          <mxGeometry x="750" y="840" width="120" height="80" as="geometry" />
        </mxCell>
        <mxCell id="yHIf9WJu6i8qHb0t4-19-77" value="" style="endArrow=none;dashed=1;html=1;rounded=0;entryX=0;entryY=0.5;entryDx=0;entryDy=0;" edge="1" parent="1" target="yHIf9WJu6i8qHb0t4-19-76">
          <mxGeometry width="50" height="50" relative="1" as="geometry">
            <mxPoint x="670" y="780" as="sourcePoint" />
            <mxPoint x="750" y="870" as="targetPoint" />
            <Array as="points">
              <mxPoint x="670" y="880" />
            </Array>
          </mxGeometry>
        </mxCell>
        <mxCell id="yHIf9WJu6i8qHb0t4-19-79" value="" style="html=1;verticalAlign=bottom;endArrow=open;dashed=1;endSize=8;elbow=vertical;rounded=0;exitX=0.5;exitY=1;exitDx=0;exitDy=0;entryX=1;entryY=0.5;entryDx=0;entryDy=0;" edge="1" parent="1" source="Tm5OL89H6dSyZLh9gVA5-49" target="Tm5OL89H6dSyZLh9gVA5-41">
          <mxGeometry x="1" y="176" relative="1" as="geometry">
            <mxPoint x="880" y="140" as="sourcePoint" />
            <mxPoint x="1010" y="-100" as="targetPoint" />
            <mxPoint x="-31" y="-9" as="offset" />
            <Array as="points">
              <mxPoint x="1060" y="360" />
              <mxPoint x="940" y="360" />
            </Array>
          </mxGeometry>
        </mxCell>
        <mxCell id="yHIf9WJu6i8qHb0t4-19-80" value="include" style="edgeLabel;html=1;align=center;verticalAlign=middle;resizable=0;points=[];" vertex="1" connectable="0" parent="yHIf9WJu6i8qHb0t4-19-79">
          <mxGeometry x="0.1121" y="-2" relative="1" as="geometry">
            <mxPoint as="offset" />
          </mxGeometry>
        </mxCell>
      </root>
    </mxGraphModel>
  </diagram>
</mxfile>
